PathFileType	4	(X/Y/Z)	./resultDataOpenSim/trcMotMarkerGrf/sub10/qtm-12-05.trc
DataRate	CameraRate	NumFrames	NumMarkers	Units	OrigDataRate	OrigDataStartFrame	OrigNumFrames
250.000000	250.000000	7	24	m	250.000000	1	507
Frame#	Time	L.Toe.Tip			R.Toe.Tip			L.Ankle.Lat			R.Ankle.Lat			L.Ankle.Med			R.Ankle.Med			L.Heel			R.Heel			L.Knee.Lat			R.Knee.Lat			L.Knee.Med			R.Knee.Med			L.Thigh.Upper			R.Thigh.Upper			L.ASIS			R.ASIS			V.Sacral			L.Acromium			R.Acromium			C7			L.Elbow			R.Elbow			L.Wrist.Lat			R.Wrist.Lat
		X1	Y1	Z1	X2	Y2	Z2	X3	Y3	Z3	X4	Y4	Z4	X5	Y5	Z5	X6	Y6	Z6	X7	Y7	Z7	X8	Y8	Z8	X9	Y9	Z9	X10	Y10	Z10	X11	Y11	Z11	X12	Y12	Z12	X13	Y13	Z13	X14	Y14	Z14	X15	Y15	Z15	X16	Y16	Z16	X17	Y17	Z17	X18	Y18	Z18	X19	Y19	Z19	X20	Y20	Z20	X21	Y21	Z21	X22	Y22	Z22	X23	Y23	Z23	X24	Y24	Z24

1	0	-1.5028706	0.038685748	-0.16104834	-0.96511964	0.10674177	-0.047864105	-1.6375305	0.064526313	-0.18799807	-1.1002	0.071853854	-0.027608457	-1.624251	0.092747167	-0.10789995	-1.0860056	0.10947126	-0.10668586	NaN	NaN	NaN	-1.1308681	0.031807436	-0.084197196	-1.5260839	0.43540517	-0.242945	-1.2241321	0.45577095	0.012838369	-1.5163231	0.41678215	-0.12217745	-1.2135445	0.4580124	-0.11797572	-1.4366064	0.8208455	-0.3165635	-1.3721048	0.83668452	0.061964626	-1.3617506	0.92523366	-0.2606325	-1.3172551	0.93467108	-0.018206971	-1.5357226	0.94418507	-0.10256488	-1.3673662	1.3880957	-0.30670274	-1.3906429	1.3981812	0.018405567	-1.4601887	1.4312345	-0.15385586	-1.4211595	1.0354654	-0.35098315	NaN	NaN	NaN	-1.202332	0.9135406	-0.32209355	-1.5069161	0.86983078	0.15364407
2	0.004	-1.5027716	0.038650553	-0.16106925	-0.95461371	0.10985533	-0.050511156	-1.6373114	0.064743477	-0.18784309	-1.0889335	0.072420526	-0.027916233	-1.6235945	0.09295592	-0.10784298	-1.0760713	0.11016263	-0.1073276	NaN	NaN	NaN	-1.1195798	0.031887723	-0.083840155	-1.5231734	0.43492958	-0.24308523	-1.2204678	0.45380366	0.012501941	-1.5132822	0.41623023	-0.12222697	-1.209403	0.45634296	-0.11801664	-1.4326934	0.82016447	-0.31659992	-1.3669479	0.83500598	0.062000119	-1.3574255	0.92432327	-0.2605615	-1.31187	0.93335493	-0.018376894	-1.5311458	0.9429685	-0.1022158	-1.362943	1.3871259	-0.30668212	-1.3864413	1.3970223	0.018443329	-1.4558056	1.4302085	-0.1538299	-1.4160951	1.034337	-0.35077098	NaN	NaN	NaN	-1.1962667	0.91398385	-0.32167681	-1.5055455	0.86919893	0.15398103
3	0.008	-1.5026746	0.038615144	-0.16109377	-0.9442699	0.11290397	-0.053015259	-1.6371008	0.06502413	-0.18767538	-1.0778954	0.072962358	-0.028280154	-1.6228149	0.093161218	-0.10777403	-1.0662123	0.11086318	-0.10794825	NaN	NaN	NaN	-1.1083848	0.032000453	-0.083412807	-1.5202804	0.43446138	-0.24321236	-1.2160211	0.45213442	0.012398445	-1.5102136	0.41569167	-0.12226542	-1.2053078	0.45464238	-0.11804029	-1.4287919	0.81949068	-0.31666418	-1.3616978	0.83334681	0.062015549	-1.3530969	0.92339679	-0.26052508	-1.3065524	0.93204892	-0.018551588	-1.5265484	0.94176281	-0.10184298	-1.3584523	1.386144	-0.30666131	-1.38218	1.3958895	0.018439827	-1.4514359	1.4291725	-0.15384067	-1.4110786	1.0332081	-0.35048625	NaN	NaN	NaN	-1.1901901	0.9144231	-0.32130574	-1.5039101	0.86858761	0.15430245
4	0.012	-1.5025808	0.038579899	-0.16111872	-0.93415789	0.11578818	-0.055179957	-1.6368961	0.065382309	-0.18748946	-1.0671492	0.073497939	-0.028717727	-1.6218658	0.09338034	-0.10768726	-1.0564905	0.11158371	-0.10853886	NaN	NaN	NaN	-1.0973306	0.032164004	-0.082880641	-1.5173154	0.43401313	-0.24333233	-1.2106835	0.45081887	0.012557618	-1.5070945	0.4151616	-0.12230099	-1.2012447	0.45291237	-0.11804049	-1.4248986	0.81883312	-0.31676948	-1.3563489	0.83172597	0.062008003	-1.3487608	0.92245324	-0.26054002	-1.3012973	0.93074876	-0.018729836	-1.5219126	0.94057366	-0.10142363	-1.3538599	1.3851449	-0.30664801	-1.3778155	1.3947927	0.018395511	-1.4470705	1.4281244	-0.15389653	-1.406113	1.0320827	-0.35005126	NaN	NaN	NaN	-1.1841012	0.91485945	-0.32101053	-1.5018682	0.86800121	0.15460428
5	0.016	-1.5024913	0.038547143	-0.16114032	-0.92428538	0.11844998	-0.056983948	-1.6366872	0.065790707	-0.18729223	-1.0566264	0.074086895	-0.029194736	-1.6208269	0.093667482	-0.10759357	-1.0469535	0.11234079	-0.10910432	NaN	NaN	NaN	-1.0864573	0.032382816	-0.082268505	-1.5140918	0.43361279	-0.24345779	-1.205125	0.44962508	0.01277505	-1.503929	0.41462385	-0.12235081	-1.1971868	0.45118075	-0.11801861	-1.4210072	0.8181896	-0.31689231	-1.3509235	0.8301688	0.061992312	-1.3444194	0.92150658	-0.26060663	-1.2960441	0.9294467	-0.018905529	-1.5172306	0.93940998	-0.10093548	-1.3491856	1.3841412	-0.3066438	-1.3733477	1.3937245	0.018332362	-1.4426998	1.4270696	-0.15398942	-1.4011408	1.0309661	-0.34946323	NaN	NaN	NaN	-1.178018	0.91529602	-0.32079927	-1.4994453	0.86743022	0.15488791
6	0.02	-1.5024056	0.038519851	-0.16115984	-0.91466176	0.12091546	-0.058649101	-1.6364658	0.06622527	-0.1870956	-1.0462696	0.07476887	-0.029676738	-1.6198326	0.094084609	-0.10751954	-1.0376193	0.11314788	-0.10966243	NaN	NaN	NaN	-1.0758348	0.032658989	-0.081701814	-1.5104564	0.43328584	-0.24359719	-1.1999507	0.4483359	0.012869429	-1.5007006	0.41407	-0.122432	-1.1931381	0.44946784	-0.11797799	-1.4171176	0.8175516	-0.31699494	-1.3454064	0.828695	0.061987813	-1.3400708	0.92057135	-0.26071707	-1.2907489	0.92813856	-0.019077198	-1.5124951	0.93828243	-0.10036466	-1.3444615	1.3831511	-0.30663345	-1.3688141	1.3926702	0.018269255	-1.4383148	1.4260128	-0.15411036	-1.3960515	1.029863	-0.34880152	NaN	NaN	NaN	-1.1719501	0.91573235	-0.32065721	-1.4967867	0.86686601	0.15515909
7	0.024	-1.5023197	0.038497031	-0.16117913	-0.90534224	0.12321987	-0.06035991	-1.6362298	0.066687823	-0.18690757	-1.0361456	0.075510739	-0.030183549	-1.6189353	0.094621018	-0.10748265	-1.0285015	0.11400199	-0.11023347	NaN	NaN	NaN	-1.0655719	0.032992264	-0.081377474	-1.5065082	0.43300998	-0.24375341	-1.1950769	0.44699247	0.012884383	-1.49731	0.41350115	-0.12256426	-1.1891119	0.44778069	-0.11791692	-1.4132427	0.81692438	-0.31707258	-1.3398093	0.82731351	0.061997638	-1.3357149	0.91965353	-0.26085795	-1.2854348	0.92682897	-0.019253849	-1.5077048	0.93719763	-0.099715697	-1.3397003	1.3821786	-0.30659985	-1.3642762	1.3916212	0.018224606	-1.4339013	1.4249577	-0.15423717	-1.3907752	1.0287851	-0.34814154	NaN	NaN	NaN	-1.1658946	0.91616102	-0.32055999	-1.4941202	0.86631557	0.15543568
